<svg width="69" height="12" viewBox="0 0 69 12" fill="none" xmlns="http://www.w3.org/2000/svg">
<g clip-path="url(#clip0_1_1123)">
<path d="M9.91 4.93549C9.91 4.79355 9.80032 4.70323 9.58096 4.66452L6.58086 4.21934L5.24533 1.50957C5.16791 1.35473 5.07113 1.27731 4.955 1.27731C4.83887 1.27731 4.74209 1.35473 4.66467 1.50957L3.32914 4.21934L0.329043 4.66452C0.109681 4.70323 0 4.79355 0 4.93549C0 5.02582 0.0516146 5.1226 0.154844 5.22583L2.32266 7.33557L1.80006 10.3163C1.80006 10.3679 1.80006 10.4066 1.80006 10.4324C1.80006 10.5099 1.81941 10.5776 1.85812 10.6357C1.89684 10.6937 1.96135 10.7228 2.05168 10.7228C2.1162 10.7228 2.19362 10.697 2.28395 10.6454L4.955 9.25176L7.62605 10.6454C7.71638 10.697 7.7938 10.7228 7.85832 10.7228C7.94865 10.7228 8.01316 10.6937 8.05188 10.6357C8.09059 10.5776 8.10994 10.5099 8.10994 10.4324C8.10994 10.3808 8.10994 10.3421 8.10994 10.3163L7.58734 7.33557L9.75516 5.22583C9.85839 5.1226 9.91 5.02582 9.91 4.93549Z" fill="#FFCD00"/>
</g>
<g clip-path="url(#clip1_1_1123)">
<path d="M23.8099 4.93549C23.8099 4.79355 23.7003 4.70323 23.4812 4.66452L20.4841 4.21934L19.15 1.50957C19.0726 1.35473 18.9759 1.27731 18.8599 1.27731C18.7439 1.27731 18.6472 1.35473 18.5699 1.50957L17.2357 4.21934L14.2386 4.66452C14.0195 4.70323 13.9099 4.79355 13.9099 4.93549C13.9099 5.02582 13.9615 5.1226 14.0646 5.22583L16.2302 7.33557L15.7082 10.3163C15.7082 10.3679 15.7082 10.4066 15.7082 10.4324C15.7082 10.5099 15.7275 10.5776 15.7662 10.6357C15.8048 10.6937 15.8693 10.7228 15.9595 10.7228C16.024 10.7228 16.1013 10.697 16.1916 10.6454L18.8599 9.25176L21.5283 10.6454C21.6185 10.697 21.6958 10.7228 21.7603 10.7228C21.8505 10.7228 21.915 10.6937 21.9537 10.6357C21.9923 10.5776 22.0117 10.5099 22.0117 10.4324C22.0117 10.3808 22.0117 10.3421 22.0117 10.3163L21.4896 7.33557L23.6552 5.22583C23.7583 5.1226 23.8099 5.02582 23.8099 4.93549Z" fill="#FFCD00"/>
</g>
<g clip-path="url(#clip2_1_1123)">
<path d="M37.7201 4.93549C37.7201 4.79355 37.6104 4.70323 37.391 4.66452L34.3909 4.21934L33.0554 1.50957C32.978 1.35473 32.8812 1.27731 32.7651 1.27731C32.6489 1.27731 32.5521 1.35473 32.4747 1.50957L31.1392 4.21934L28.1391 4.66452C27.9197 4.70323 27.8101 4.79355 27.8101 4.93549C27.8101 5.02582 27.8617 5.1226 27.9649 5.22583L30.1327 7.33557L29.6101 10.3163C29.6101 10.3679 29.6101 10.4066 29.6101 10.4324C29.6101 10.5099 29.6295 10.5776 29.6682 10.6357C29.7069 10.6937 29.7714 10.7228 29.8617 10.7228C29.9263 10.7228 30.0037 10.697 30.094 10.6454L32.7651 9.25176L35.4361 10.6454C35.5264 10.697 35.6039 10.7228 35.6684 10.7228C35.7587 10.7228 35.8232 10.6937 35.8619 10.6357C35.9006 10.5776 35.92 10.5099 35.92 10.4324C35.92 10.3808 35.92 10.3421 35.92 10.3163L35.3974 7.33557L37.5652 5.22583C37.6684 5.1226 37.7201 5.02582 37.7201 4.93549Z" fill="#FFCD00"/>
</g>
<g clip-path="url(#clip3_1_1123)">
<path d="M51.63 4.93549C51.63 4.79355 51.5203 4.70323 51.3009 4.66452L48.3008 4.21934L46.9653 1.50957C46.8879 1.35473 46.7911 1.27731 46.675 1.27731C46.5588 1.27731 46.4621 1.35473 46.3846 1.50957L45.0491 4.21934L42.049 4.66452C41.8297 4.70323 41.72 4.79355 41.72 4.93549C41.72 5.02582 41.7716 5.1226 41.8748 5.22583L44.0426 7.33557L43.52 10.3163C43.52 10.3679 43.52 10.4066 43.52 10.4324C43.52 10.5099 43.5394 10.5776 43.5781 10.6357C43.6168 10.6937 43.6813 10.7228 43.7717 10.7228C43.8362 10.7228 43.9136 10.697 44.0039 10.6454L46.675 9.25176L49.346 10.6454C49.4364 10.697 49.5138 10.7228 49.5783 10.7228C49.6686 10.7228 49.7331 10.6937 49.7718 10.6357C49.8106 10.5776 49.8299 10.5099 49.8299 10.4324C49.8299 10.3808 49.8299 10.3421 49.8299 10.3163L49.3073 7.33557L51.4751 5.22583C51.5784 5.1226 51.63 5.02582 51.63 4.93549Z" fill="#FFCD00"/>
</g>
<g clip-path="url(#clip4_1_1123)">
<path d="M65.5299 4.93549C65.5299 4.79355 65.4203 4.70323 65.2012 4.66452L62.2041 4.21934L60.8699 1.50957C60.7926 1.35473 60.6959 1.27731 60.5799 1.27731C60.4639 1.27731 60.3672 1.35473 60.2898 1.50957L58.9557 4.21934L55.9586 4.66452C55.7395 4.70323 55.6299 4.79355 55.6299 4.93549C55.6299 5.02582 55.6814 5.1226 55.7846 5.22583L57.9502 7.33557L57.4281 10.3163C57.4281 10.3679 57.4281 10.4066 57.4281 10.4324C57.4281 10.5099 57.4475 10.5776 57.4861 10.6357C57.5248 10.6937 57.5893 10.7228 57.6795 10.7228C57.7439 10.7228 57.8213 10.697 57.9115 10.6454L60.5799 9.25176L63.2482 10.6454C63.3385 10.697 63.4158 10.7228 63.4803 10.7228C63.6479 10.7228 63.7316 10.626 63.7316 10.4324C63.7316 10.3808 63.7316 10.3421 63.7316 10.3163L63.2096 7.33557L65.3752 5.22583C65.4783 5.1226 65.5299 5.02582 65.5299 4.93549ZM62.3975 7.06459L62.8229 9.56145L60.5799 8.38077L58.3369 9.56145L58.7623 7.06459L56.9447 5.30325L59.4584 4.91614L60.5799 2.65155L61.7014 4.91614L64.215 5.30325L62.3975 7.06459Z" fill="#FFCD00"/>
</g>
<defs>
<clipPath id="clip0_1_1123">
<rect width="9.91" height="10" fill="white" transform="matrix(1 0 0 -1 0 11)"/>
</clipPath>
<clipPath id="clip1_1_1123">
<rect width="9.9" height="10" fill="white" transform="matrix(1 0 0 -1 13.9099 11)"/>
</clipPath>
<clipPath id="clip2_1_1123">
<rect width="9.91" height="10" fill="white" transform="matrix(1 0 0 -1 27.8101 11)"/>
</clipPath>
<clipPath id="clip3_1_1123">
<rect width="9.91" height="10" fill="white" transform="matrix(1 0 0 -1 41.72 11)"/>
</clipPath>
<clipPath id="clip4_1_1123">
<rect width="9.9" height="10" fill="white" transform="matrix(1 0 0 -1 55.6299 11)"/>
</clipPath>
</defs>
</svg>
