<svg width="22" height="22" viewBox="0 0 22 22" fill="none" xmlns="http://www.w3.org/2000/svg">
<g clip-path="url(#clip0_1_6152)">
<path d="M14.4091 9.482V7.37L12.7151 3.432V0H2.90309V3.432L1.12109 7.37V22H20.8771V9.482H14.4091ZM17.6651 18.062C17.2838 17.7247 16.8511 17.556 16.3671 17.556C15.8831 17.556 15.4504 17.7247 15.0691 18.062C14.7024 17.7247 14.2771 17.556 13.7931 17.556C13.6024 17.556 13.3824 17.5927 13.1331 17.666V13.772H19.6011V17.666C19.3518 17.5927 19.1318 17.556 18.9411 17.556C18.4571 17.556 18.0318 17.7247 17.6651 18.062ZM19.6011 12.474H13.1331V10.78H19.6011V12.474ZM11.8571 9.482V18.15H2.39709V8.162H13.1111V9.482H11.8571ZM12.7811 6.864H2.77109L3.95909 4.202H11.6371L12.7811 6.864ZM4.20109 1.298H11.4171V2.926H4.20109V1.298ZM2.39709 20.702V19.448H11.8571V20.702H2.39709ZM13.1331 20.702V19.492C13.1331 19.316 13.1991 19.1657 13.3311 19.041C13.4631 18.9163 13.6171 18.854 13.7931 18.854C13.9691 18.854 14.1194 18.9163 14.2441 19.041C14.3688 19.1657 14.4311 19.316 14.4311 19.492V20.702H13.1331ZM15.7291 20.702V19.492C15.7291 19.316 15.7914 19.1657 15.9161 19.041C16.0408 18.9163 16.1911 18.854 16.3671 18.854C16.5431 18.854 16.6934 18.9163 16.8181 19.041C16.9428 19.1657 17.0051 19.316 17.0051 19.492V20.702H15.7291ZM19.6011 20.702H18.3031V19.492C18.3031 19.316 18.3654 19.1657 18.4901 19.041C18.6148 18.9163 18.7651 18.854 18.9411 18.854C19.1171 18.854 19.2711 18.9163 19.4031 19.041C19.5351 19.1657 19.6011 19.316 19.6011 19.492V20.702Z" fill="#202435"/>
</g>
<defs>
<clipPath id="clip0_1_6152">
<rect width="22" height="22" fill="white" transform="matrix(1 0 0 -1 0 22)"/>
</clipPath>
</defs>
</svg>
