<svg width="101" height="34" viewBox="0 0 101 34" fill="none" xmlns="http://www.w3.org/2000/svg">
<rect x="0.5" y="0.5" width="99.13" height="33" rx="16.5" fill="#C2C2D3"/>
<rect x="0.5" y="0.5" width="99.13" height="33" rx="16.5" stroke="#C2C2D3"/>
<path d="M26.7188 14.5653C26.6733 14.1619 26.4858 13.8494 26.1562 13.6278C25.8267 13.4034 25.4119 13.2912 24.9119 13.2912C24.554 13.2912 24.2443 13.348 23.983 13.4616C23.7216 13.5724 23.5185 13.7259 23.3736 13.9219C23.2315 14.1151 23.1605 14.3352 23.1605 14.5824C23.1605 14.7898 23.2088 14.9687 23.3054 15.1193C23.4048 15.2699 23.5341 15.3963 23.6932 15.4986C23.8551 15.598 24.0284 15.6818 24.2131 15.75C24.3977 15.8153 24.5753 15.8693 24.7457 15.9119L25.598 16.1335C25.8764 16.2017 26.1619 16.294 26.4545 16.4105C26.7472 16.527 27.0185 16.6804 27.2685 16.8707C27.5185 17.0611 27.7202 17.2969 27.8736 17.5781C28.0298 17.8594 28.108 18.196 28.108 18.5881C28.108 19.0824 27.9801 19.5213 27.7244 19.9048C27.4716 20.2884 27.1037 20.5909 26.6207 20.8125C26.1406 21.0341 25.5597 21.1449 24.8778 21.1449C24.2244 21.1449 23.6591 21.0412 23.1818 20.8338C22.7045 20.6264 22.331 20.3324 22.0611 19.9517C21.7912 19.5682 21.642 19.1136 21.6136 18.5881H22.9347C22.9602 18.9034 23.0625 19.1662 23.2415 19.3764C23.4233 19.5838 23.6548 19.7386 23.9361 19.8409C24.2202 19.9403 24.5312 19.9901 24.8693 19.9901C25.2415 19.9901 25.5724 19.9318 25.8622 19.8153C26.1548 19.696 26.3849 19.5312 26.5526 19.321C26.7202 19.108 26.804 18.8594 26.804 18.5753C26.804 18.3168 26.7301 18.1051 26.5824 17.9403C26.4375 17.7756 26.2401 17.6392 25.9901 17.5312C25.7429 17.4233 25.4631 17.3281 25.1506 17.2457L24.1193 16.9645C23.4205 16.7741 22.8665 16.4943 22.4574 16.125C22.0511 15.7557 21.848 15.267 21.848 14.6591C21.848 14.1562 21.9844 13.7173 22.2571 13.3423C22.5298 12.9673 22.8991 12.6761 23.3651 12.4688C23.831 12.2585 24.3565 12.1534 24.9418 12.1534C25.5327 12.1534 26.054 12.2571 26.5057 12.4645C26.9602 12.6719 27.3182 12.9574 27.5795 13.321C27.8409 13.6818 27.9773 14.0966 27.9886 14.5653H26.7188ZM30.7533 17.1136V21H29.4792V12.2727H30.7363V15.5199H30.8173C30.9707 15.1676 31.205 14.8878 31.5204 14.6804C31.8357 14.473 32.2477 14.3693 32.7562 14.3693C33.205 14.3693 33.5971 14.4616 33.9323 14.6463C34.2704 14.831 34.5317 15.1065 34.7164 15.473C34.9039 15.8366 34.9977 16.2912 34.9977 16.8366V21H33.7235V16.9901C33.7235 16.5099 33.5999 16.1378 33.3528 15.8736C33.1056 15.6065 32.7619 15.473 32.3215 15.473C32.0204 15.473 31.7505 15.5369 31.5119 15.6648C31.2761 15.7926 31.09 15.9801 30.9536 16.2273C30.8201 16.4716 30.7533 16.767 30.7533 17.1136ZM39.355 21.1321C38.7414 21.1321 38.2059 20.9915 37.7485 20.7102C37.2911 20.429 36.936 20.0355 36.6832 19.5298C36.4303 19.0241 36.3039 18.4332 36.3039 17.7571C36.3039 17.0781 36.4303 16.4844 36.6832 15.9759C36.936 15.4673 37.2911 15.0724 37.7485 14.7912C38.2059 14.5099 38.7414 14.3693 39.355 14.3693C39.9687 14.3693 40.5042 14.5099 40.9616 14.7912C41.419 15.0724 41.7741 15.4673 42.0269 15.9759C42.2798 16.4844 42.4062 17.0781 42.4062 17.7571C42.4062 18.4332 42.2798 19.0241 42.0269 19.5298C41.7741 20.0355 41.419 20.429 40.9616 20.7102C40.5042 20.9915 39.9687 21.1321 39.355 21.1321ZM39.3593 20.0625C39.757 20.0625 40.0866 19.9574 40.3479 19.7472C40.6093 19.5369 40.8025 19.2571 40.9275 18.9077C41.0553 18.5582 41.1192 18.1733 41.1192 17.7528C41.1192 17.3352 41.0553 16.9517 40.9275 16.6023C40.8025 16.25 40.6093 15.9673 40.3479 15.7543C40.0866 15.5412 39.757 15.4347 39.3593 15.4347C38.9587 15.4347 38.6263 15.5412 38.3621 15.7543C38.1008 15.9673 37.9062 16.25 37.7783 16.6023C37.6533 16.9517 37.5908 17.3352 37.5908 17.7528C37.5908 18.1733 37.6533 18.5582 37.7783 18.9077C37.9062 19.2571 38.1008 19.5369 38.3621 19.7472C38.6263 19.9574 38.9587 20.0625 39.3593 20.0625ZM43.7284 23.4545V14.4545H44.9727V15.5156H45.0793C45.1531 15.3793 45.2597 15.2216 45.3989 15.0426C45.5381 14.8636 45.7313 14.7074 45.9784 14.5739C46.2256 14.4375 46.5523 14.3693 46.9585 14.3693C47.4869 14.3693 47.9585 14.5028 48.3733 14.7699C48.7881 15.0369 49.1134 15.4219 49.3491 15.9247C49.5878 16.4276 49.7071 17.0327 49.7071 17.7401C49.7071 18.4474 49.5892 19.054 49.3534 19.5597C49.1176 20.0625 48.7938 20.4503 48.3818 20.723C47.9699 20.9929 47.4997 21.1278 46.9713 21.1278C46.5736 21.1278 46.2483 21.0611 45.9955 20.9276C45.7455 20.794 45.5494 20.6378 45.4074 20.4588C45.2653 20.2798 45.156 20.1207 45.0793 19.9815H45.0026V23.4545H43.7284ZM44.977 17.7273C44.977 18.1875 45.0438 18.5909 45.1773 18.9375C45.3108 19.2841 45.504 19.5554 45.7568 19.7514C46.0097 19.9446 46.3193 20.0412 46.6858 20.0412C47.0665 20.0412 47.3847 19.9403 47.6403 19.7386C47.896 19.5341 48.0892 19.2571 48.2199 18.9077C48.3534 18.5582 48.4202 18.1648 48.4202 17.7273C48.4202 17.2955 48.3548 16.9077 48.2241 16.5639C48.0963 16.2202 47.9031 15.9489 47.6446 15.75C47.3889 15.5511 47.0693 15.4517 46.6858 15.4517C46.3165 15.4517 46.004 15.5469 45.7483 15.7372C45.4955 15.9276 45.3037 16.1932 45.173 16.5341C45.0423 16.875 44.977 17.2727 44.977 17.7273ZM61.2567 12.2727V21H60.0465L55.6104 14.5994H55.5295V21H54.2127V12.2727H55.4315L59.8718 18.6818H59.9528V12.2727H61.2567ZM65.7324 21.1321C65.1188 21.1321 64.5832 20.9915 64.1259 20.7102C63.6685 20.429 63.3134 20.0355 63.0605 19.5298C62.8077 19.0241 62.6813 18.4332 62.6813 17.7571C62.6813 17.0781 62.8077 16.4844 63.0605 15.9759C63.3134 15.4673 63.6685 15.0724 64.1259 14.7912C64.5832 14.5099 65.1188 14.3693 65.7324 14.3693C66.346 14.3693 66.8815 14.5099 67.3389 14.7912C67.7963 15.0724 68.1514 15.4673 68.4043 15.9759C68.6571 16.4844 68.7835 17.0781 68.7835 17.7571C68.7835 18.4332 68.6571 19.0241 68.4043 19.5298C68.1514 20.0355 67.7963 20.429 67.3389 20.7102C66.8815 20.9915 66.346 21.1321 65.7324 21.1321ZM65.7366 20.0625C66.1344 20.0625 66.4639 19.9574 66.7253 19.7472C66.9866 19.5369 67.1798 19.2571 67.3048 18.9077C67.4327 18.5582 67.4966 18.1733 67.4966 17.7528C67.4966 17.3352 67.4327 16.9517 67.3048 16.6023C67.1798 16.25 66.9866 15.9673 66.7253 15.7543C66.4639 15.5412 66.1344 15.4347 65.7366 15.4347C65.3361 15.4347 65.0037 15.5412 64.7395 15.7543C64.4781 15.9673 64.2835 16.25 64.1557 16.6023C64.0307 16.9517 63.9682 17.3352 63.9682 17.7528C63.9682 18.1733 64.0307 18.5582 64.1557 18.9077C64.2835 19.2571 64.4781 19.5369 64.7395 19.7472C65.0037 19.9574 65.3361 20.0625 65.7366 20.0625ZM71.3256 21L69.3994 14.4545H70.7162L71.9989 19.2614H72.0628L73.3497 14.4545H74.6665L75.9449 19.2401H76.0088L77.283 14.4545H78.5997L76.6778 21H75.3781L74.0486 16.2741H73.9506L72.621 21H71.3256Z" fill="white"/>
</svg>
