<svg width="33" height="33" viewBox="0 0 33 33" fill="none" xmlns="http://www.w3.org/2000/svg">
<g clip-path="url(#clip0_1_6178)">
<path d="M11 5C9.00533 5 7.15733 5.49867 5.456 6.496C3.79867 7.47867 2.47867 8.79867 1.496 10.456C0.498667 12.1573 0 14.0053 0 16C0 17.9947 0.498667 19.8427 1.496 21.544C2.47867 23.2013 3.79867 24.5213 5.456 25.504C7.15733 26.5013 9.00533 27 11 27C12.9947 27 14.8427 26.5013 16.544 25.504C18.2013 24.5213 19.5213 23.2013 20.504 21.544C21.5013 19.8427 22 17.9947 22 16C22 14.0053 21.5013 12.1573 20.504 10.456C19.5213 8.79867 18.2013 7.47867 16.544 6.496C14.8427 5.49867 12.9947 5 11 5ZM11 25.636C9.26933 25.636 7.656 25.196 6.16 24.316C4.708 23.4653 3.55667 22.314 2.706 20.862C1.826 19.366 1.386 17.7453 1.386 16C1.386 14.2547 1.826 12.634 2.706 11.138C3.55667 9.686 4.708 8.53467 6.16 7.684C7.656 6.804 9.273 6.364 11.011 6.364C12.749 6.364 14.366 6.804 15.862 7.684C17.314 8.53467 18.4653 9.686 19.316 11.138C20.196 12.634 20.636 14.2547 20.636 16C20.636 17.7453 20.196 19.366 19.316 20.862C18.4653 22.314 17.314 23.4653 15.862 24.316C14.366 25.196 12.7453 25.636 11 25.636ZM11 15.318C10.4427 15.318 9.95867 15.1823 9.548 14.911C9.13733 14.6397 8.932 14.317 8.932 13.943C8.932 13.569 9.13733 13.2463 9.548 12.975C9.95867 12.7037 10.4427 12.568 11 12.568C11.6453 12.568 12.1807 12.744 12.606 13.096C12.7527 13.228 12.9213 13.2903 13.112 13.283C13.3027 13.2757 13.4603 13.1987 13.585 13.052C13.7097 12.9053 13.7647 12.7367 13.75 12.546C13.7353 12.3553 13.662 12.2013 13.53 12.084C13.046 11.644 12.43 11.3653 11.682 11.248V10.5C11.682 10.3093 11.616 10.148 11.484 10.016C11.352 9.884 11.1907 9.818 11 9.818C10.8093 9.818 10.648 9.884 10.516 10.016C10.384 10.148 10.318 10.3093 10.318 10.5V11.248C9.526 11.3653 8.86967 11.677 8.349 12.183C7.82833 12.689 7.568 13.272 7.568 13.932C7.568 14.4307 7.722 14.889 8.03 15.307C8.338 15.725 8.756 16.0587 9.284 16.308C9.812 16.5573 10.384 16.682 11 16.682C11.5573 16.682 12.0413 16.8177 12.452 17.089C12.8627 17.3603 13.068 17.683 13.068 18.057C13.068 18.431 12.8627 18.7537 12.452 19.025C12.0413 19.2963 11.5573 19.432 11 19.432C10.3547 19.432 9.81933 19.256 9.394 18.904C9.24733 18.772 9.07867 18.7097 8.888 18.717C8.69733 18.7243 8.53967 18.8013 8.415 18.948C8.29033 19.0947 8.23533 19.2633 8.25 19.454C8.26467 19.6447 8.34533 19.7987 8.492 19.916C8.94667 20.356 9.55533 20.6347 10.318 20.752V21.5C10.318 21.6907 10.384 21.852 10.516 21.984C10.648 22.116 10.8093 22.182 11 22.182C11.1907 22.182 11.352 22.116 11.484 21.984C11.616 21.852 11.682 21.6907 11.682 21.5V20.752C12.474 20.6347 13.1303 20.323 13.651 19.817C14.1717 19.311 14.432 18.728 14.432 18.068C14.432 17.5693 14.278 17.111 13.97 16.693C13.662 16.275 13.244 15.9413 12.716 15.692C12.188 15.4427 11.616 15.318 11 15.318Z" fill="#202435"/>
</g>
<defs>
<clipPath id="clip0_1_6178">
<rect width="22" height="22" fill="white" transform="matrix(1 0 0 -1 0 27)"/>
</clipPath>
</defs>
</svg>
