<svg width="33" height="33" viewBox="0 0 33 33" fill="none" xmlns="http://www.w3.org/2000/svg">
<g clip-path="url(#clip0_1_6169)">
<path d="M20.5483 16.286C20.4456 16.0953 20.4456 15.9047 20.5483 15.714L21.3623 14.042C21.5969 13.5727 21.6336 13.0923 21.4723 12.601C21.3109 12.1097 20.9956 11.7393 20.5263 11.49L18.8763 10.632C18.6856 10.5293 18.5756 10.3753 18.5463 10.17L18.2163 8.322C18.1283 7.80867 17.8753 7.40167 17.4573 7.101C17.0393 6.80033 16.5736 6.68667 16.0603 6.76L14.2123 7.024C14.0069 7.05333 13.8309 6.99467 13.6843 6.848L12.3423 5.55C11.9756 5.18333 11.5319 5 11.0113 5C10.4906 5 10.0396 5.18333 9.65828 5.55L8.31628 6.848C8.16961 6.99467 7.99361 7.05333 7.78828 7.024L5.94028 6.76C5.42695 6.68667 4.96128 6.80033 4.54328 7.101C4.12528 7.40167 3.87228 7.80867 3.78428 8.322L3.45428 10.17C3.42495 10.3753 3.31495 10.5293 3.12428 10.632L1.47428 11.49C1.00495 11.7393 0.689613 12.1097 0.52828 12.601C0.366947 13.0923 0.403613 13.5727 0.63828 14.042L1.47428 15.714C1.57695 15.9047 1.57695 16.0953 1.47428 16.286L0.63828 17.958C0.403613 18.4273 0.366947 18.904 0.52828 19.388C0.689613 19.872 1.00495 20.2387 1.47428 20.488L3.12428 21.368C3.31495 21.4707 3.42495 21.6247 3.45428 21.83L3.78428 23.678C3.85761 24.1327 4.07028 24.5103 4.42228 24.811C4.77428 25.1117 5.18495 25.262 5.65428 25.262C5.77161 25.262 5.86695 25.2547 5.94028 25.24L7.78828 24.976C7.99361 24.9467 8.16961 25.0053 8.31628 25.152L9.65828 26.45C10.0249 26.8167 10.4723 27 11.0003 27C11.5283 27 11.9756 26.8167 12.3423 26.45L13.6843 25.152C13.8309 25.0053 14.0069 24.9467 14.2123 24.976L16.0603 25.24C16.5736 25.3133 17.0393 25.1997 17.4573 24.899C17.8753 24.5983 18.1283 24.1913 18.2163 23.678L18.5463 21.83C18.5756 21.6247 18.6856 21.4707 18.8763 21.368L20.5263 20.488C20.9956 20.2387 21.3109 19.872 21.4723 19.388C21.6336 18.904 21.5969 18.4273 21.3623 17.958L20.5483 16.286ZM19.9323 19.388L18.2823 20.246C18.0183 20.3927 17.8019 20.5833 17.6333 20.818C17.4646 21.0527 17.3509 21.3167 17.2923 21.61L16.9843 23.458C16.9549 23.634 16.8669 23.7733 16.7203 23.876C16.5736 23.9787 16.4123 24.0153 16.2363 23.986L14.3883 23.722C14.1096 23.678 13.8273 23.7037 13.5413 23.799C13.2553 23.8943 13.0096 24.0447 12.8043 24.25L11.4623 25.548C11.3449 25.6653 11.1946 25.724 11.0113 25.724C10.8279 25.724 10.6776 25.6653 10.5603 25.548L9.21828 24.25C8.82228 23.8833 8.37495 23.7 7.87628 23.7L7.61228 23.722L5.76428 23.986C5.58828 24.0153 5.42695 23.9787 5.28028 23.876C5.13361 23.7733 5.04561 23.634 5.01628 23.458L4.70828 21.61C4.64961 21.3167 4.53595 21.0527 4.36728 20.818C4.19861 20.5833 3.98228 20.3927 3.71828 20.246L2.06828 19.388C1.90695 19.3147 1.80061 19.1937 1.74928 19.025C1.69795 18.8563 1.70895 18.6913 1.78228 18.53L2.59628 16.836C2.72828 16.572 2.79428 16.2933 2.79428 16C2.79428 15.7067 2.72828 15.428 2.59628 15.164L1.78228 13.47C1.70895 13.3087 1.69795 13.1437 1.74928 12.975C1.80061 12.8063 1.90695 12.6853 2.06828 12.612L3.71828 11.754C3.98228 11.6073 4.19861 11.4167 4.36728 11.182C4.53595 10.9473 4.64961 10.6833 4.70828 10.39L5.01628 8.542C5.04561 8.366 5.13361 8.22667 5.28028 8.124C5.42695 8.02133 5.58828 7.98467 5.76428 8.014L7.61228 8.278C7.89095 8.322 8.17328 8.29633 8.45928 8.201C8.74528 8.10567 8.99828 7.95533 9.21828 7.75L10.5603 6.452C10.6776 6.33467 10.8279 6.276 11.0113 6.276C11.1946 6.276 11.3449 6.33467 11.4623 6.452L12.8043 7.75C13.0096 7.95533 13.2553 8.10567 13.5413 8.201C13.8273 8.29633 14.1096 8.322 14.3883 8.278L16.2363 8.014C16.4123 7.98467 16.5736 8.02133 16.7203 8.124C16.8669 8.22667 16.9549 8.366 16.9843 8.542L17.2923 10.39C17.3509 10.6833 17.4646 10.9473 17.6333 11.182C17.8019 11.4167 18.0183 11.6073 18.2823 11.754L19.9323 12.612C20.0936 12.6853 20.1999 12.8063 20.2513 12.975C20.3026 13.1437 20.2916 13.3087 20.2183 13.47L19.4043 15.164C19.2723 15.428 19.2063 15.7067 19.2063 16C19.2063 16.2933 19.2723 16.572 19.4043 16.836L20.2183 18.53C20.2916 18.6913 20.3026 18.8563 20.2513 19.025C20.1999 19.1937 20.0936 19.3147 19.9323 19.388ZM15.6423 11.358C15.5249 11.2407 15.3746 11.182 15.1913 11.182C15.0079 11.182 14.8576 11.2407 14.7403 11.358L6.35828 19.74C6.24095 19.8573 6.18228 20.004 6.18228 20.18C6.18228 20.356 6.24461 20.5063 6.36928 20.631C6.49395 20.7557 6.63695 20.818 6.79828 20.818C6.95961 20.818 7.11361 20.7593 7.26028 20.642L15.6423 12.26C15.7596 12.1427 15.8183 11.996 15.8183 11.82C15.8183 11.644 15.7596 11.49 15.6423 11.358ZM8.47028 10.28C8.04495 10.28 7.65261 10.3863 7.29328 10.599C6.93395 10.8117 6.65161 11.094 6.44628 11.446C6.24095 11.798 6.13828 12.1867 6.13828 12.612C6.13828 13.0373 6.24095 13.426 6.44628 13.778C6.65161 14.13 6.93395 14.4123 7.29328 14.625C7.65261 14.8377 8.04495 14.944 8.47028 14.944C8.89561 14.944 9.28428 14.8377 9.63628 14.625C9.98828 14.4123 10.2669 14.13 10.4723 13.778C10.6776 13.426 10.7803 13.0373 10.7803 12.612C10.7803 12.1867 10.6776 11.798 10.4723 11.446C10.2669 11.094 9.98461 10.8117 9.62528 10.599C9.26595 10.3863 8.88095 10.28 8.47028 10.28ZM8.47028 13.668C8.17695 13.668 7.92761 13.5653 7.72228 13.36C7.51695 13.1547 7.41428 12.9053 7.41428 12.612C7.41428 12.3187 7.51695 12.0693 7.72228 11.864C7.92761 11.6587 8.17695 11.556 8.47028 11.556C8.76361 11.556 9.01295 11.6587 9.21828 11.864C9.42361 12.0693 9.52628 12.3187 9.52628 12.612C9.52628 12.9053 9.42361 13.1547 9.21828 13.36C9.01295 13.5653 8.76361 13.668 8.47028 13.668ZM13.5303 17.056C13.1049 17.056 12.7163 17.1587 12.3643 17.364C12.0123 17.5693 11.7336 17.8517 11.5283 18.211C11.3229 18.5703 11.2203 18.9627 11.2203 19.388C11.2203 20.0333 11.4439 20.5797 11.8913 21.027C12.3386 21.4743 12.8849 21.698 13.5303 21.698C13.9556 21.698 14.3479 21.5953 14.7073 21.39C15.0666 21.1847 15.3489 20.906 15.5543 20.554C15.7596 20.202 15.8623 19.8133 15.8623 19.388C15.8623 18.9627 15.7596 18.574 15.5543 18.222C15.3489 17.87 15.0666 17.5877 14.7073 17.375C14.3479 17.1623 13.9556 17.056 13.5303 17.056ZM13.5303 20.444C13.2516 20.444 13.0059 20.3377 12.7933 20.125C12.5806 19.9123 12.4743 19.663 12.4743 19.377C12.4743 19.091 12.5806 18.8453 12.7933 18.64C13.0059 18.4347 13.2553 18.332 13.5413 18.332C13.8273 18.332 14.0729 18.4347 14.2783 18.64C14.4836 18.8453 14.5863 19.0947 14.5863 19.388C14.5863 19.6813 14.4836 19.9307 14.2783 20.136C14.0729 20.3413 13.8236 20.444 13.5303 20.444Z" fill="#202435"/>
</g>
<defs>
<clipPath id="clip0_1_6169">
<rect width="22" height="22" fill="white" transform="matrix(1 0 0 -1 0 27)"/>
</clipPath>
</defs>
</svg>
