<svg width="33" height="33" viewBox="0 0 33 33" fill="none" xmlns="http://www.w3.org/2000/svg">
<g clip-path="url(#clip0_1_6160)">
<path d="M16.61 18.068C16.1113 18.068 15.6493 18.1927 15.224 18.442C14.7987 18.6914 14.4613 19.0324 14.212 19.465C13.9627 19.8977 13.838 20.3634 13.838 20.862C13.838 21.3607 13.9627 21.8227 14.212 22.248C14.4613 22.6734 14.7987 23.0107 15.224 23.26C15.6493 23.5094 16.1113 23.634 16.61 23.634C17.1087 23.634 17.5707 23.5094 17.996 23.26C18.4213 23.0107 18.7587 22.6734 19.008 22.248C19.2573 21.8227 19.382 21.3607 19.382 20.862C19.382 20.3634 19.2573 19.9014 19.008 19.476C18.7587 19.0507 18.4213 18.7097 17.996 18.453C17.5707 18.1964 17.1087 18.068 16.61 18.068ZM16.61 22.248C16.2433 22.248 15.9207 22.1087 15.642 21.83C15.3633 21.5514 15.224 21.225 15.224 20.851C15.224 20.477 15.3597 20.1544 15.631 19.883C15.9023 19.6117 16.2287 19.476 16.61 19.476C16.9913 19.476 17.3177 19.6117 17.589 19.883C17.8603 20.1544 17.996 20.4807 17.996 20.862C17.996 21.2434 17.8603 21.5697 17.589 21.841C17.3177 22.1124 16.9913 22.248 16.61 22.248ZM7.15 18.068C6.65133 18.068 6.18933 18.1927 5.764 18.442C5.33867 18.6914 5.00133 19.0324 4.752 19.465C4.50267 19.8977 4.378 20.3634 4.378 20.862C4.378 21.3607 4.50267 21.8227 4.752 22.248C5.00133 22.6734 5.33867 23.0107 5.764 23.26C6.18933 23.5094 6.65133 23.634 7.15 23.634C7.64867 23.634 8.11067 23.5094 8.536 23.26C8.96133 23.0107 9.29867 22.6734 9.548 22.248C9.79733 21.8227 9.922 21.3607 9.922 20.862C9.922 20.3634 9.79733 19.9014 9.548 19.476C9.29867 19.0507 8.96133 18.7097 8.536 18.453C8.11067 18.1964 7.64867 18.068 7.15 18.068ZM7.15 22.248C6.76867 22.248 6.44233 22.1124 6.171 21.841C5.89967 21.5697 5.764 21.2434 5.764 20.862C5.764 20.4807 5.89967 20.1544 6.171 19.883C6.44233 19.6117 6.76867 19.476 7.15 19.476C7.53133 19.476 7.85767 19.6117 8.129 19.883C8.40033 20.1544 8.536 20.477 8.536 20.851C8.536 21.225 8.40033 21.5514 8.129 21.83C7.85767 22.1087 7.53133 22.248 7.15 22.248ZM18.48 10.148C18.4213 10.0307 18.337 9.93537 18.227 9.86203C18.117 9.7887 17.996 9.75203 17.864 9.75203H14.212V11.138H17.446L19.316 14.9L20.57 14.284L18.48 10.148ZM5.06 20.18H2.662C2.47133 20.18 2.30633 20.246 2.167 20.378C2.02767 20.51 1.958 20.675 1.958 20.873C1.958 21.071 2.02767 21.236 2.167 21.368C2.30633 21.5 2.47133 21.566 2.662 21.566H5.06C5.25067 21.566 5.41567 21.5 5.555 21.368C5.69433 21.236 5.764 21.0747 5.764 20.884C5.764 20.6934 5.69433 20.5284 5.555 20.389C5.41567 20.2497 5.25067 20.18 5.06 20.18ZM21.846 15.934L20.482 14.196C20.3353 14.0054 20.1593 13.91 19.954 13.91H14.916V9.07003C14.916 8.87937 14.8463 8.71437 14.707 8.57503C14.5677 8.4357 14.4027 8.36603 14.212 8.36603H2.662C2.47133 8.36603 2.30633 8.43203 2.167 8.56403C2.02767 8.69603 1.958 8.86103 1.958 9.05903C1.958 9.25703 2.024 9.42203 2.156 9.55403C2.288 9.68603 2.45667 9.75203 2.662 9.75203H13.53V14.614C13.53 14.8047 13.596 14.966 13.728 15.098C13.86 15.23 14.0213 15.296 14.212 15.296H19.602L20.614 16.616V20.18H18.7C18.5093 20.18 18.3443 20.246 18.205 20.378C18.0657 20.51 17.996 20.675 17.996 20.873C17.996 21.071 18.0657 21.236 18.205 21.368C18.3443 21.5 18.5093 21.566 18.7 21.566H21.318C21.5087 21.566 21.67 21.5 21.802 21.368C21.934 21.236 22 21.0747 22 20.884V16.374C22 16.198 21.9487 16.0514 21.846 15.934ZM5.016 16.66H1.826C1.63533 16.66 1.474 16.7297 1.342 16.869C1.21 17.0084 1.144 17.1734 1.144 17.364C1.144 17.5547 1.21 17.716 1.342 17.848C1.474 17.98 1.63533 18.046 1.826 18.046H5.016C5.20667 18.046 5.37167 17.98 5.511 17.848C5.65033 17.716 5.72 17.5547 5.72 17.364C5.72 17.1734 5.65033 17.0084 5.511 16.869C5.37167 16.7297 5.20667 16.66 5.016 16.66ZM6.6 13.932H0.704C0.513333 13.932 0.348333 14.0017 0.209 14.141C0.0696667 14.2804 0 14.4454 0 14.636C0 14.8267 0.0696667 14.988 0.209 15.12C0.348333 15.252 0.513333 15.318 0.704 15.318H6.6C6.79067 15.318 6.95567 15.252 7.095 15.12C7.23433 14.988 7.304 14.8267 7.304 14.636C7.304 14.4454 7.23433 14.2804 7.095 14.141C6.95567 14.0017 6.79067 13.932 6.6 13.932ZM7.744 11.226H1.826C1.63533 11.226 1.474 11.292 1.342 11.424C1.21 11.556 1.144 11.7174 1.144 11.908C1.144 12.0987 1.21 12.2637 1.342 12.403C1.474 12.5424 1.63533 12.612 1.826 12.612H7.744C7.93467 12.612 8.096 12.5424 8.228 12.403C8.36 12.2637 8.426 12.0987 8.426 11.908C8.426 11.7174 8.36 11.556 8.228 11.424C8.096 11.292 7.93467 11.226 7.744 11.226Z" fill="#202435"/>
</g>
<defs>
<clipPath id="clip0_1_6160">
<rect width="22" height="22" fill="white" transform="matrix(1 0 0 -1 0 27)"/>
</clipPath>
</defs>
</svg>
