<svg width="194" height="34" viewBox="0 0 194 34" fill="none" xmlns="http://www.w3.org/2000/svg">
<rect x="0.5" y="0.5" width="193" height="33" rx="16.5" fill="#FFCD00"/>
<rect x="0.5" y="0.5" width="193" height="33" rx="16.5" stroke="#FFCD00"/>
<path d="M66.8924 21H65.4947L68.6353 12.2727H70.1566L73.2972 21H71.8995L69.4322 13.858H69.364L66.8924 21ZM67.1268 17.5824H71.6609V18.6903H67.1268V17.5824ZM76.8001 21.1278C76.2717 21.1278 75.8001 20.9929 75.3853 20.723C74.9734 20.4503 74.6495 20.0625 74.4137 19.5597C74.1808 19.054 74.0643 18.4474 74.0643 17.7401C74.0643 17.0327 74.1822 16.4276 74.418 15.9247C74.6566 15.4219 74.9833 15.0369 75.3981 14.7699C75.8129 14.5028 76.283 14.3693 76.8086 14.3693C77.2148 14.3693 77.5415 14.4375 77.7887 14.5739C78.0387 14.7074 78.2319 14.8636 78.3683 15.0426C78.5075 15.2216 78.6154 15.3793 78.6921 15.5156H78.7688V12.2727H80.043V21H78.7986V19.9815H78.6921C78.6154 20.1207 78.5046 20.2798 78.3597 20.4588C78.2177 20.6378 78.0217 20.794 77.7717 20.9276C77.5217 21.0611 77.1978 21.1278 76.8001 21.1278ZM77.0813 20.0412C77.4478 20.0412 77.7575 19.9446 78.0103 19.7514C78.266 19.5554 78.4592 19.2841 78.5898 18.9375C78.7234 18.5909 78.7901 18.1875 78.7901 17.7273C78.7901 17.2727 78.7248 16.875 78.5941 16.5341C78.4634 16.1932 78.2717 15.9276 78.0188 15.7372C77.766 15.5469 77.4535 15.4517 77.0813 15.4517C76.6978 15.4517 76.3782 15.5511 76.1225 15.75C75.8668 15.9489 75.6736 16.2202 75.543 16.5639C75.4151 16.9077 75.3512 17.2955 75.3512 17.7273C75.3512 18.1648 75.4165 18.5582 75.5472 18.9077C75.6779 19.2571 75.8711 19.5341 76.1268 19.7386C76.3853 19.9403 76.7035 20.0412 77.0813 20.0412ZM84.3118 21.1278C83.7834 21.1278 83.3118 20.9929 82.897 20.723C82.4851 20.4503 82.1612 20.0625 81.9254 19.5597C81.6925 19.054 81.576 18.4474 81.576 17.7401C81.576 17.0327 81.6939 16.4276 81.9297 15.9247C82.1683 15.4219 82.495 15.0369 82.9098 14.7699C83.3246 14.5028 83.7947 14.3693 84.3203 14.3693C84.7266 14.3693 85.0533 14.4375 85.3004 14.5739C85.5504 14.7074 85.7436 14.8636 85.88 15.0426C86.0192 15.2216 86.1271 15.3793 86.2038 15.5156H86.2805V12.2727H87.5547V21H86.3104V19.9815H86.2038C86.1271 20.1207 86.0163 20.2798 85.8714 20.4588C85.7294 20.6378 85.5334 20.794 85.2834 20.9276C85.0334 21.0611 84.7095 21.1278 84.3118 21.1278ZM84.593 20.0412C84.9595 20.0412 85.2692 19.9446 85.522 19.7514C85.7777 19.5554 85.9709 19.2841 86.1016 18.9375C86.2351 18.5909 86.3018 18.1875 86.3018 17.7273C86.3018 17.2727 86.2365 16.875 86.1058 16.5341C85.9751 16.1932 85.7834 15.9276 85.5305 15.7372C85.2777 15.5469 84.9652 15.4517 84.593 15.4517C84.2095 15.4517 83.8899 15.5511 83.6342 15.75C83.3786 15.9489 83.1854 16.2202 83.0547 16.5639C82.9268 16.9077 82.8629 17.2955 82.8629 17.7273C82.8629 18.1648 82.9283 18.5582 83.0589 18.9077C83.1896 19.2571 83.3828 19.5341 83.6385 19.7386C83.897 19.9403 84.2152 20.0412 84.593 20.0412ZM95.6044 14.4545V15.4773H92.0291V14.4545H95.6044ZM92.9879 12.8864H94.2621V19.0781C94.2621 19.3253 94.299 19.5114 94.3729 19.6364C94.4467 19.7585 94.5419 19.8423 94.6584 19.8878C94.7777 19.9304 94.907 19.9517 95.0462 19.9517C95.1484 19.9517 95.2379 19.9446 95.3146 19.9304C95.3913 19.9162 95.451 19.9048 95.4936 19.8963L95.7237 20.9489C95.6499 20.9773 95.5447 21.0057 95.4084 21.0341C95.272 21.0653 95.1016 21.0824 94.897 21.0852C94.5618 21.0909 94.2493 21.0312 93.9595 20.9062C93.6697 20.7812 93.4354 20.5881 93.2564 20.3267C93.0774 20.0653 92.9879 19.7372 92.9879 19.3423V12.8864ZM99.7006 21.1321C99.087 21.1321 98.5515 20.9915 98.0941 20.7102C97.6367 20.429 97.2816 20.0355 97.0288 19.5298C96.7759 19.0241 96.6495 18.4332 96.6495 17.7571C96.6495 17.0781 96.7759 16.4844 97.0288 15.9759C97.2816 15.4673 97.6367 15.0724 98.0941 14.7912C98.5515 14.5099 99.087 14.3693 99.7006 14.3693C100.314 14.3693 100.85 14.5099 101.307 14.7912C101.765 15.0724 102.12 15.4673 102.373 15.9759C102.625 16.4844 102.752 17.0781 102.752 17.7571C102.752 18.4332 102.625 19.0241 102.373 19.5298C102.12 20.0355 101.765 20.429 101.307 20.7102C100.85 20.9915 100.314 21.1321 99.7006 21.1321ZM99.7049 20.0625C100.103 20.0625 100.432 19.9574 100.694 19.7472C100.955 19.5369 101.148 19.2571 101.273 18.9077C101.401 18.5582 101.465 18.1733 101.465 17.7528C101.465 17.3352 101.401 16.9517 101.273 16.6023C101.148 16.25 100.955 15.9673 100.694 15.7543C100.432 15.5412 100.103 15.4347 99.7049 15.4347C99.3043 15.4347 98.9719 15.5412 98.7077 15.7543C98.4464 15.9673 98.2518 16.25 98.1239 16.6023C97.9989 16.9517 97.9364 17.3352 97.9364 17.7528C97.9364 18.1733 97.9989 18.5582 98.1239 18.9077C98.2518 19.2571 98.4464 19.5369 98.7077 19.7472C98.9719 19.9574 99.3043 20.0625 99.7049 20.0625ZM110.107 21.1321C109.473 21.1321 108.928 20.9886 108.471 20.7017C108.016 20.4119 107.667 20.0128 107.422 19.5043C107.178 18.9957 107.056 18.4134 107.056 17.7571C107.056 17.0923 107.181 16.5057 107.431 15.9972C107.681 15.4858 108.033 15.0866 108.488 14.7997C108.942 14.5128 109.478 14.3693 110.094 14.3693C110.591 14.3693 111.034 14.4616 111.424 14.6463C111.813 14.8281 112.127 15.0838 112.365 15.4134C112.607 15.7429 112.75 16.1278 112.796 16.5682H111.556C111.488 16.2614 111.331 15.9972 111.087 15.7756C110.846 15.554 110.522 15.4432 110.115 15.4432C109.76 15.4432 109.449 15.5369 109.182 15.7244C108.918 15.9091 108.712 16.1733 108.564 16.517C108.417 16.858 108.343 17.2614 108.343 17.7273C108.343 18.2045 108.415 18.6165 108.56 18.9631C108.705 19.3097 108.909 19.5781 109.174 19.7685C109.441 19.9588 109.755 20.054 110.115 20.054C110.357 20.054 110.576 20.0099 110.772 19.9219C110.971 19.831 111.137 19.7017 111.27 19.5341C111.407 19.3665 111.502 19.1648 111.556 18.929H112.796C112.75 19.3523 112.613 19.7301 112.382 20.0625C112.152 20.3949 111.844 20.6562 111.458 20.8466C111.074 21.0369 110.624 21.1321 110.107 21.1321ZM116.063 21.1449C115.648 21.1449 115.273 21.0682 114.938 20.9148C114.603 20.7585 114.337 20.5327 114.141 20.2372C113.948 19.9418 113.852 19.5795 113.852 19.1506C113.852 18.7812 113.923 18.4773 114.065 18.2386C114.207 18 114.398 17.8111 114.64 17.6719C114.881 17.5327 115.151 17.4276 115.45 17.3565C115.748 17.2855 116.052 17.2315 116.362 17.1946C116.754 17.1491 117.072 17.1122 117.316 17.0838C117.56 17.0526 117.738 17.0028 117.849 16.9347C117.96 16.8665 118.015 16.7557 118.015 16.6023V16.5724C118.015 16.2003 117.91 15.9119 117.7 15.7074C117.492 15.5028 117.183 15.4006 116.771 15.4006C116.342 15.4006 116.004 15.4957 115.756 15.6861C115.512 15.8736 115.343 16.0824 115.249 16.3125L114.052 16.0398C114.194 15.642 114.401 15.321 114.674 15.0767C114.95 14.8295 115.266 14.6506 115.624 14.5398C115.982 14.4261 116.359 14.3693 116.754 14.3693C117.015 14.3693 117.292 14.4006 117.585 14.4631C117.88 14.5227 118.156 14.6335 118.411 14.7955C118.67 14.9574 118.881 15.1889 119.046 15.4901C119.211 15.7884 119.293 16.1761 119.293 16.6534V21H118.049V20.1051H117.998C117.915 20.2699 117.792 20.4318 117.627 20.5909C117.462 20.75 117.251 20.8821 116.992 20.9872C116.734 21.0923 116.424 21.1449 116.063 21.1449ZM116.34 20.1222C116.692 20.1222 116.994 20.0526 117.244 19.9134C117.496 19.7741 117.688 19.5923 117.819 19.3679C117.952 19.1406 118.019 18.8977 118.019 18.6392V17.7955C117.974 17.8409 117.886 17.8835 117.755 17.9233C117.627 17.9602 117.481 17.9929 117.316 18.0213C117.151 18.0469 116.991 18.071 116.835 18.0938C116.678 18.1136 116.548 18.1307 116.442 18.1449C116.195 18.1761 115.969 18.2287 115.765 18.3026C115.563 18.3764 115.401 18.483 115.279 18.6222C115.16 18.7585 115.1 18.9403 115.1 19.1676C115.1 19.483 115.217 19.7216 115.45 19.8835C115.683 20.0426 115.979 20.1222 116.34 20.1222ZM120.99 21V14.4545H122.222V15.4943H122.29C122.409 15.142 122.62 14.8651 122.921 14.6634C123.225 14.4588 123.569 14.3565 123.952 14.3565C124.032 14.3565 124.125 14.3594 124.233 14.3651C124.344 14.3707 124.431 14.3778 124.493 14.3864V15.6051C124.442 15.5909 124.351 15.5753 124.221 15.5582C124.09 15.5384 123.959 15.5284 123.828 15.5284C123.527 15.5284 123.259 15.5923 123.023 15.7202C122.79 15.8452 122.605 16.0199 122.469 16.2443C122.333 16.4659 122.265 16.7187 122.265 17.0028V21H120.99ZM129.038 14.4545V15.4773H125.463V14.4545H129.038ZM126.422 12.8864H127.696V19.0781C127.696 19.3253 127.733 19.5114 127.806 19.6364C127.88 19.7585 127.975 19.8423 128.092 19.8878C128.211 19.9304 128.341 19.9517 128.48 19.9517C128.582 19.9517 128.672 19.9446 128.748 19.9304C128.825 19.9162 128.885 19.9048 128.927 19.8963L129.157 20.9489C129.083 20.9773 128.978 21.0057 128.842 21.0341C128.706 21.0653 128.535 21.0824 128.331 21.0852C127.995 21.0909 127.683 21.0312 127.393 20.9062C127.103 20.7812 126.869 20.5881 126.69 20.3267C126.511 20.0653 126.422 19.7372 126.422 19.3423V12.8864Z" fill="#202435"/>
</svg>
