<svg width="1170" height="64" viewBox="0 0 1170 64" fill="none" xmlns="http://www.w3.org/2000/svg">
<rect width="1170" height="64" rx="7" fill="#FFEEF2"/>
<path d="M293.563 29.7102C293.518 29.2519 293.323 28.8958 292.978 28.642C292.634 28.3883 292.166 28.2614 291.575 28.2614C291.173 28.2614 290.834 28.3182 290.558 28.4318C290.281 28.5417 290.069 28.6951 289.921 28.892C289.778 29.089 289.706 29.3125 289.706 29.5625C289.698 29.7708 289.742 29.9527 289.836 30.108C289.935 30.2633 290.069 30.3977 290.24 30.5114C290.41 30.6212 290.607 30.7178 290.831 30.8011C291.054 30.8807 291.293 30.9489 291.546 31.0057L292.592 31.2557C293.099 31.3693 293.565 31.5208 293.99 31.7102C294.414 31.8996 294.781 32.1326 295.092 32.4091C295.403 32.6856 295.643 33.0114 295.813 33.3864C295.988 33.7614 296.077 34.1913 296.081 34.6761C296.077 35.3883 295.895 36.0057 295.535 36.5284C295.179 37.0473 294.664 37.4508 293.99 37.7386C293.319 38.0227 292.51 38.1648 291.563 38.1648C290.624 38.1648 289.806 38.0208 289.109 37.733C288.416 37.4451 287.874 37.0189 287.484 36.4545C287.098 35.8864 286.895 35.1837 286.876 34.3466H289.257C289.283 34.7367 289.395 35.0625 289.592 35.3239C289.793 35.5814 290.06 35.7765 290.393 35.9091C290.73 36.0379 291.111 36.1023 291.535 36.1023C291.952 36.1023 292.313 36.0417 292.62 35.9205C292.931 35.7992 293.171 35.6307 293.342 35.4148C293.512 35.1989 293.598 34.9508 293.598 34.6705C293.598 34.4091 293.52 34.1894 293.365 34.0114C293.213 33.8333 292.99 33.6818 292.694 33.5568C292.403 33.4318 292.045 33.3182 291.62 33.2159L290.353 32.8977C289.372 32.6591 288.598 32.286 288.029 31.7784C287.461 31.2708 287.179 30.5871 287.183 29.7273C287.179 29.0227 287.367 28.4072 287.745 27.8807C288.128 27.3542 288.653 26.9432 289.319 26.6477C289.986 26.3523 290.743 26.2045 291.592 26.2045C292.456 26.2045 293.209 26.3523 293.853 26.6477C294.501 26.9432 295.005 27.3542 295.365 27.8807C295.724 28.4072 295.91 29.017 295.921 29.7102H293.563ZM303.475 38H300.839L304.856 26.3636H308.027L312.038 38H309.402L306.487 29.0227H306.396L303.475 38ZM303.311 33.4261H309.538V35.3466H303.311V33.4261ZM318.088 26.3636L320.9 35.2045H321.008L323.826 26.3636H326.554L322.542 38H319.372L315.355 26.3636H318.088ZM331.954 38V26.3636H339.795V28.392H334.414V31.1648H339.392V33.1932H334.414V35.9716H339.818V38H331.954ZM355.46 38H352.823L356.84 26.3636H360.011L364.022 38H361.386L358.471 29.0227H358.38L355.46 38ZM355.295 33.4261H361.522V35.3466H355.295V33.4261ZM379.156 26.3636V38H377.031L371.968 30.6761H371.883V38H369.423V26.3636H371.582L376.605 33.6818H376.707V26.3636H379.156ZM392.892 38V26.3636H400.733V28.392H395.352V31.1648H400.329V33.1932H395.352V35.9716H400.755V38H392.892ZM408.995 26.3636L411.342 30.3295H411.433L413.791 26.3636H416.569L413.018 32.1818L416.649 38H413.819L411.433 34.0284H411.342L408.956 38H406.137L409.779 32.1818L406.206 26.3636H408.995ZM421.683 28.392V26.3636H431.24V28.392H427.677V38H425.245V28.392H421.683ZM436.813 38V26.3636H441.404C442.283 26.3636 443.033 26.5208 443.654 26.8352C444.279 27.1458 444.755 27.5871 445.081 28.1591C445.41 28.7273 445.575 29.3958 445.575 30.1648C445.575 30.9375 445.408 31.6023 445.075 32.1591C444.742 32.7121 444.259 33.1364 443.626 33.4318C442.997 33.7273 442.236 33.875 441.342 33.875H438.268V31.8977H440.944C441.414 31.8977 441.804 31.8333 442.115 31.7045C442.425 31.5758 442.656 31.3826 442.808 31.125C442.963 30.8674 443.041 30.5473 443.041 30.1648C443.041 29.7784 442.963 29.4527 442.808 29.1875C442.656 28.9223 442.423 28.7216 442.109 28.5852C441.798 28.4451 441.406 28.375 440.933 28.375H439.274V38H436.813ZM443.098 32.7045L445.99 38H443.274L440.444 32.7045H443.098ZM453.319 38H450.683L454.7 26.3636H457.87L461.882 38H459.245L456.331 29.0227H456.24L453.319 38ZM453.154 33.4261H459.382V35.3466H453.154V33.4261ZM479.167 38.1591C478.364 38.1591 477.648 38.0114 477.019 37.7159C476.394 37.4205 475.898 37.0133 475.531 36.4943C475.163 35.9754 474.972 35.3807 474.957 34.7102H477.343C477.37 35.161 477.559 35.5265 477.911 35.8068C478.264 36.0871 478.682 36.2273 479.167 36.2273C479.554 36.2273 479.894 36.142 480.19 35.9716C480.489 35.7973 480.722 35.5568 480.889 35.25C481.059 34.9394 481.144 34.5833 481.144 34.1818C481.144 33.7727 481.057 33.4129 480.883 33.1023C480.713 32.7917 480.476 32.5492 480.173 32.375C479.87 32.2008 479.523 32.1117 479.133 32.108C478.792 32.108 478.461 32.178 478.139 32.3182C477.821 32.4583 477.572 32.6496 477.394 32.892L475.207 32.5L475.758 26.3636H482.872V28.375H477.786L477.485 31.2898H477.554C477.758 31.0019 478.067 30.7633 478.48 30.5739C478.893 30.3845 479.355 30.2898 479.866 30.2898C480.567 30.2898 481.192 30.4545 481.741 30.7841C482.29 31.1136 482.724 31.5663 483.042 32.142C483.36 32.714 483.518 33.3731 483.514 34.1193C483.518 34.9034 483.336 35.6004 482.968 36.2102C482.605 36.8163 482.095 37.2936 481.44 37.642C480.788 37.9867 480.031 38.1591 479.167 38.1591ZM494.69 31.2216V33.142H489.383V31.2216H494.69ZM505.792 26.3636V38H503.332V28.6989H503.264L500.599 30.3693V28.1875L503.48 26.3636H505.792ZM517.12 38.2557C516.143 38.2519 515.302 38.0114 514.598 37.5341C513.897 37.0568 513.357 36.3655 512.978 35.4602C512.603 34.5549 512.418 33.4659 512.421 32.1932C512.421 30.9242 512.609 29.8428 512.984 28.9489C513.363 28.0549 513.903 27.375 514.603 26.9091C515.308 26.4394 516.147 26.2045 517.12 26.2045C518.094 26.2045 518.931 26.4394 519.632 26.9091C520.336 27.3788 520.878 28.0606 521.257 28.9545C521.635 29.8447 521.823 30.9242 521.819 32.1932C521.819 33.4697 521.63 34.5606 521.251 35.4659C520.876 36.3712 520.338 37.0625 519.637 37.5398C518.937 38.017 518.098 38.2557 517.12 38.2557ZM517.12 36.2159C517.787 36.2159 518.319 35.8807 518.717 35.2102C519.115 34.5398 519.312 33.5341 519.308 32.1932C519.308 31.3106 519.217 30.5758 519.035 29.9886C518.857 29.4015 518.603 28.9602 518.274 28.6648C517.948 28.3693 517.563 28.2216 517.12 28.2216C516.457 28.2216 515.927 28.553 515.529 29.2159C515.132 29.8788 514.931 30.8712 514.927 32.1932C514.927 33.0871 515.016 33.8333 515.194 34.4318C515.376 35.0265 515.632 35.4735 515.961 35.7727C516.291 36.0682 516.677 36.2159 517.12 36.2159ZM541.646 35.8182V35.2045C541.646 34.7386 541.744 34.3106 541.941 33.9205C542.142 33.5265 542.432 33.2121 542.811 32.9773C543.193 32.7386 543.659 32.6193 544.208 32.6193C544.765 32.6193 545.233 32.7367 545.612 32.9716C545.994 33.2064 546.282 33.5208 546.475 33.9148C546.672 34.3049 546.771 34.7348 546.771 35.2045V35.8182C546.771 36.2841 546.672 36.714 546.475 37.108C546.278 37.4981 545.989 37.8106 545.606 38.0455C545.224 38.2841 544.758 38.4034 544.208 38.4034C543.652 38.4034 543.184 38.2841 542.805 38.0455C542.426 37.8106 542.138 37.4981 541.941 37.108C541.744 36.714 541.646 36.2841 541.646 35.8182ZM543.299 35.2045V35.8182C543.299 36.0871 543.364 36.3409 543.492 36.5795C543.625 36.8182 543.864 36.9375 544.208 36.9375C544.553 36.9375 544.788 36.8201 544.913 36.5852C545.042 36.3504 545.106 36.0947 545.106 35.8182V35.2045C545.106 34.928 545.045 34.6705 544.924 34.4318C544.803 34.1932 544.564 34.0739 544.208 34.0739C543.867 34.0739 543.631 34.1932 543.498 34.4318C543.366 34.6705 543.299 34.928 543.299 35.2045ZM535.674 29.1591V28.5455C535.674 28.0758 535.775 27.6458 535.975 27.2557C536.176 26.8617 536.466 26.5473 536.845 26.3125C537.227 26.0777 537.689 25.9602 538.231 25.9602C538.792 25.9602 539.261 26.0777 539.64 26.3125C540.019 26.5473 540.307 26.8617 540.504 27.2557C540.701 27.6458 540.799 28.0758 540.799 28.5455V29.1591C540.799 29.6288 540.699 30.0587 540.498 30.4489C540.301 30.839 540.011 31.1515 539.629 31.3864C539.25 31.6174 538.784 31.733 538.231 31.733C537.678 31.733 537.21 31.6155 536.828 31.3807C536.449 31.142 536.161 30.8295 535.964 30.4432C535.771 30.053 535.674 29.625 535.674 29.1591ZM537.339 28.5455V29.1591C537.339 29.4356 537.403 29.6913 537.532 29.9261C537.665 30.161 537.898 30.2784 538.231 30.2784C538.58 30.2784 538.816 30.161 538.941 29.9261C539.07 29.6913 539.135 29.4356 539.135 29.1591V28.5455C539.135 28.2689 539.074 28.0114 538.953 27.7727C538.831 27.5341 538.591 27.4148 538.231 27.4148C537.894 27.4148 537.661 27.536 537.532 27.7784C537.403 28.0208 537.339 28.2765 537.339 28.5455ZM536.424 38L544.424 26.3636H545.913L537.913 38H536.424ZM571.491 32.1818C571.491 33.4508 571.251 34.5303 570.769 35.4205C570.292 36.3106 569.641 36.9905 568.815 37.4602C567.993 37.9261 567.069 38.1591 566.042 38.1591C565.008 38.1591 564.08 37.9242 563.258 37.4545C562.436 36.9848 561.786 36.3049 561.309 35.4148C560.832 34.5246 560.593 33.447 560.593 32.1818C560.593 30.9129 560.832 29.8333 561.309 28.9432C561.786 28.053 562.436 27.375 563.258 26.9091C564.08 26.4394 565.008 26.2045 566.042 26.2045C567.069 26.2045 567.993 26.4394 568.815 26.9091C569.641 27.375 570.292 28.053 570.769 28.9432C571.251 29.8333 571.491 30.9129 571.491 32.1818ZM568.997 32.1818C568.997 31.3598 568.874 30.6667 568.627 30.1023C568.385 29.5379 568.042 29.1098 567.599 28.8182C567.156 28.5265 566.637 28.3807 566.042 28.3807C565.447 28.3807 564.929 28.5265 564.485 28.8182C564.042 29.1098 563.697 29.5379 563.451 30.1023C563.209 30.6667 563.088 31.3598 563.088 32.1818C563.088 33.0038 563.209 33.697 563.451 34.2614C563.697 34.8258 564.042 35.2538 564.485 35.5455C564.929 35.8371 565.447 35.983 566.042 35.983C566.637 35.983 567.156 35.8371 567.599 35.5455C568.042 35.2538 568.385 34.8258 568.627 34.2614C568.874 33.697 568.997 33.0038 568.997 32.1818ZM587.046 26.3636V38H584.921L579.859 30.6761H579.774V38H577.313V26.3636H579.473L584.495 33.6818H584.598V26.3636H587.046ZM600.782 38V26.3636H608.623V28.392H603.242V31.1648H608.22V33.1932H603.242V35.9716H608.646V38H600.782ZM616.681 26.3636L619.494 35.2045H619.602L622.42 26.3636H625.147L621.136 38H617.965L613.948 26.3636H616.681ZM630.548 38V26.3636H638.389V28.392H633.008V31.1648H637.985V33.1932H633.008V35.9716H638.411V38H630.548ZM644.345 38V26.3636H648.936C649.814 26.3636 650.564 26.5208 651.186 26.8352C651.811 27.1458 652.286 27.5871 652.612 28.1591C652.941 28.7273 653.106 29.3958 653.106 30.1648C653.106 30.9375 652.939 31.6023 652.606 32.1591C652.273 32.7121 651.79 33.1364 651.157 33.4318C650.528 33.7273 649.767 33.875 648.873 33.875H645.799V31.8977H648.475C648.945 31.8977 649.335 31.8333 649.646 31.7045C649.956 31.5758 650.188 31.3826 650.339 31.125C650.494 30.8674 650.572 30.5473 650.572 30.1648C650.572 29.7784 650.494 29.4527 650.339 29.1875C650.188 28.9223 649.955 28.7216 649.64 28.5852C649.33 28.4451 648.938 28.375 648.464 28.375H646.805V38H644.345ZM650.629 32.7045L653.521 38H650.805L647.975 32.7045H650.629ZM657.679 26.3636H660.434L663.088 31.375H663.201L665.855 26.3636H668.61L664.366 33.8864V38H661.923V33.8864L657.679 26.3636ZM683.663 38H681.027L685.044 26.3636H688.214L692.225 38H689.589L686.674 29.0227H686.583L683.663 38ZM683.498 33.4261H689.725V35.3466H683.498V33.4261ZM704.813 26.3636H707.274V33.9205C707.274 34.7689 707.071 35.5114 706.666 36.1477C706.264 36.7841 705.702 37.2803 704.978 37.6364C704.255 37.9886 703.412 38.1648 702.45 38.1648C701.484 38.1648 700.639 37.9886 699.916 37.6364C699.192 37.2803 698.63 36.7841 698.228 36.1477C697.827 35.5114 697.626 34.7689 697.626 33.9205V26.3636H700.086V33.7102C700.086 34.1534 700.183 34.5473 700.376 34.892C700.573 35.2367 700.849 35.5076 701.206 35.7045C701.562 35.9015 701.976 36 702.45 36C702.927 36 703.342 35.9015 703.694 35.7045C704.05 35.5076 704.325 35.2367 704.518 34.892C704.715 34.5473 704.813 34.1534 704.813 33.7102V26.3636ZM712.855 28.392V26.3636H722.411V28.392H718.849V38H716.417V28.392H712.855ZM738.147 32.1818C738.147 33.4508 737.907 34.5303 737.426 35.4205C736.948 36.3106 736.297 36.9905 735.471 37.4602C734.649 37.9261 733.725 38.1591 732.698 38.1591C731.664 38.1591 730.736 37.9242 729.914 37.4545C729.092 36.9848 728.443 36.3049 727.965 35.4148C727.488 34.5246 727.25 33.447 727.25 32.1818C727.25 30.9129 727.488 29.8333 727.965 28.9432C728.443 28.053 729.092 27.375 729.914 26.9091C730.736 26.4394 731.664 26.2045 732.698 26.2045C733.725 26.2045 734.649 26.4394 735.471 26.9091C736.297 27.375 736.948 28.053 737.426 28.9432C737.907 29.8333 738.147 30.9129 738.147 32.1818ZM735.653 32.1818C735.653 31.3598 735.53 30.6667 735.284 30.1023C735.041 29.5379 734.698 29.1098 734.255 28.8182C733.812 28.5265 733.293 28.3807 732.698 28.3807C732.104 28.3807 731.585 28.5265 731.142 28.8182C730.698 29.1098 730.354 29.5379 730.108 30.1023C729.865 30.6667 729.744 31.3598 729.744 32.1818C729.744 33.0038 729.865 33.697 730.108 34.2614C730.354 34.8258 730.698 35.2538 731.142 35.5455C731.585 35.8371 732.104 35.983 732.698 35.983C733.293 35.983 733.812 35.8371 734.255 35.5455C734.698 35.2538 735.041 34.8258 735.284 34.2614C735.53 33.697 735.653 33.0038 735.653 32.1818ZM750.282 29.7102C750.237 29.2519 750.042 28.8958 749.697 28.642C749.352 28.3883 748.885 28.2614 748.294 28.2614C747.892 28.2614 747.553 28.3182 747.277 28.4318C747 28.5417 746.788 28.6951 746.64 28.892C746.496 29.089 746.424 29.3125 746.424 29.5625C746.417 29.7708 746.46 29.9527 746.555 30.108C746.653 30.2633 746.788 30.3977 746.958 30.5114C747.129 30.6212 747.326 30.7178 747.549 30.8011C747.773 30.8807 748.011 30.9489 748.265 31.0057L749.311 31.2557C749.818 31.3693 750.284 31.5208 750.708 31.7102C751.133 31.8996 751.5 32.1326 751.811 32.4091C752.121 32.6856 752.362 33.0114 752.532 33.3864C752.706 33.7614 752.795 34.1913 752.799 34.6761C752.795 35.3883 752.614 36.0057 752.254 36.5284C751.898 37.0473 751.383 37.4508 750.708 37.7386C750.038 38.0227 749.229 38.1648 748.282 38.1648C747.343 38.1648 746.525 38.0208 745.828 37.733C745.135 37.4451 744.593 37.0189 744.203 36.4545C743.816 35.8864 743.614 35.1837 743.595 34.3466H745.975C746.002 34.7367 746.114 35.0625 746.311 35.3239C746.511 35.5814 746.778 35.7765 747.112 35.9091C747.449 36.0379 747.83 36.1023 748.254 36.1023C748.67 36.1023 749.032 36.0417 749.339 35.9205C749.65 35.7992 749.89 35.6307 750.061 35.4148C750.231 35.1989 750.316 34.9508 750.316 34.6705C750.316 34.4091 750.239 34.1894 750.083 34.0114C749.932 33.8333 749.708 33.6818 749.413 33.5568C749.121 33.4318 748.763 33.3182 748.339 33.2159L747.072 32.8977C746.091 32.6591 745.316 32.286 744.748 31.7784C744.18 31.2708 743.898 30.5871 743.902 29.7273C743.898 29.0227 744.085 28.4072 744.464 27.8807C744.847 27.3542 745.371 26.9432 746.038 26.6477C746.705 26.3523 747.462 26.2045 748.311 26.2045C749.174 26.2045 749.928 26.3523 750.572 26.6477C751.22 26.9432 751.724 27.3542 752.083 27.8807C752.443 28.4072 752.629 29.017 752.64 29.7102H750.282ZM758.454 38V26.3636H760.914V31.1648H765.909V26.3636H768.363V38H765.909V33.1932H760.914V38H758.454ZM776.852 26.3636V38H774.392V26.3636H776.852ZM782.876 38V26.3636H787.467C788.349 26.3636 789.101 26.5322 789.723 26.8693C790.344 27.2027 790.817 27.6667 791.143 28.2614C791.473 28.8523 791.637 29.5341 791.637 30.3068C791.637 31.0795 791.471 31.7614 791.137 32.3523C790.804 32.9432 790.321 33.4034 789.688 33.733C789.06 34.0625 788.298 34.2273 787.404 34.2273H784.478V32.2557H787.007C787.48 32.2557 787.87 32.1742 788.177 32.0114C788.488 31.8447 788.719 31.6155 788.87 31.3239C789.026 31.0284 789.103 30.6894 789.103 30.3068C789.103 29.9205 789.026 29.5833 788.87 29.2955C788.719 29.0038 788.488 28.7784 788.177 28.6193C787.867 28.4564 787.473 28.375 786.995 28.375H785.336V38H782.876ZM815.632 32.1818C815.632 33.4508 815.391 34.5303 814.91 35.4205C814.433 36.3106 813.781 36.9905 812.956 37.4602C812.134 37.9261 811.209 38.1591 810.183 38.1591C809.149 38.1591 808.221 37.9242 807.399 37.4545C806.577 36.9848 805.927 36.3049 805.45 35.4148C804.973 34.5246 804.734 33.447 804.734 32.1818C804.734 30.9129 804.973 29.8333 805.45 28.9432C805.927 28.053 806.577 27.375 807.399 26.9091C808.221 26.4394 809.149 26.2045 810.183 26.2045C811.209 26.2045 812.134 26.4394 812.956 26.9091C813.781 27.375 814.433 28.053 814.91 28.9432C815.391 29.8333 815.632 30.9129 815.632 32.1818ZM813.137 32.1818C813.137 31.3598 813.014 30.6667 812.768 30.1023C812.526 29.5379 812.183 29.1098 811.74 28.8182C811.296 28.5265 810.778 28.3807 810.183 28.3807C809.588 28.3807 809.069 28.5265 808.626 28.8182C808.183 29.1098 807.838 29.5379 807.592 30.1023C807.349 30.6667 807.228 31.3598 807.228 32.1818C807.228 33.0038 807.349 33.697 807.592 34.2614C807.838 34.8258 808.183 35.2538 808.626 35.5455C809.069 35.8371 809.588 35.983 810.183 35.983C810.778 35.983 811.296 35.8371 811.74 35.5455C812.183 35.2538 812.526 34.8258 812.768 34.2614C813.014 33.697 813.137 33.0038 813.137 32.1818ZM821.454 38V26.3636H826.045C826.924 26.3636 827.674 26.5208 828.295 26.8352C828.92 27.1458 829.395 27.5871 829.721 28.1591C830.051 28.7273 830.215 29.3958 830.215 30.1648C830.215 30.9375 830.049 31.6023 829.715 32.1591C829.382 32.7121 828.899 33.1364 828.267 33.4318C827.638 33.7273 826.876 33.875 825.983 33.875H822.909V31.8977H825.585C826.054 31.8977 826.445 31.8333 826.755 31.7045C827.066 31.5758 827.297 31.3826 827.448 31.125C827.604 30.8674 827.681 30.5473 827.681 30.1648C827.681 29.7784 827.604 29.4527 827.448 29.1875C827.297 28.9223 827.064 28.7216 826.75 28.5852C826.439 28.4451 826.047 28.375 825.573 28.375H823.914V38H821.454ZM827.738 32.7045L830.63 38H827.914L825.085 32.7045H827.738ZM840.079 38H835.954V26.3636H840.113C841.284 26.3636 842.291 26.5966 843.136 27.0625C843.981 27.5246 844.63 28.1894 845.085 29.0568C845.543 29.9242 845.772 30.9621 845.772 32.1705C845.772 33.3826 845.543 34.4242 845.085 35.2955C844.63 36.1667 843.977 36.8352 843.125 37.3011C842.276 37.767 841.261 38 840.079 38ZM838.414 35.892H839.977C840.704 35.892 841.316 35.7633 841.812 35.5057C842.312 35.2443 842.687 34.8409 842.937 34.2955C843.191 33.7462 843.318 33.0379 843.318 32.1705C843.318 31.3106 843.191 30.608 842.937 30.0625C842.687 29.517 842.314 29.1155 841.818 28.858C841.322 28.6004 840.71 28.4716 839.983 28.4716H838.414V35.892ZM851.595 38V26.3636H859.436V28.392H854.055V31.1648H859.032V33.1932H854.055V35.9716H859.458V38H851.595ZM865.392 38V26.3636H869.983C870.861 26.3636 871.611 26.5208 872.233 26.8352C872.858 27.1458 873.333 27.5871 873.659 28.1591C873.988 28.7273 874.153 29.3958 874.153 30.1648C874.153 30.9375 873.986 31.6023 873.653 32.1591C873.32 32.7121 872.837 33.1364 872.204 33.4318C871.575 33.7273 870.814 33.875 869.92 33.875H866.846V31.8977H869.522C869.992 31.8977 870.382 31.8333 870.693 31.7045C871.003 31.5758 871.234 31.3826 871.386 31.125C871.541 30.8674 871.619 30.5473 871.619 30.1648C871.619 29.7784 871.541 29.4527 871.386 29.1875C871.234 28.9223 871.001 28.7216 870.687 28.5852C870.376 28.4451 869.984 28.375 869.511 28.375H867.852V38H865.392ZM871.676 32.7045L874.568 38H871.852L869.022 32.7045H871.676ZM882.738 26.3636L882.517 34.5114H880.437L880.21 26.3636H882.738ZM881.477 38.1477C881.102 38.1477 880.78 38.0152 880.511 37.75C880.242 37.4811 880.109 37.1591 880.113 36.7841C880.109 36.4129 880.242 36.0947 880.511 35.8295C880.78 35.5644 881.102 35.4318 881.477 35.4318C881.837 35.4318 882.153 35.5644 882.426 35.8295C882.698 36.0947 882.837 36.4129 882.84 36.7841C882.837 37.0341 882.77 37.2633 882.642 37.4716C882.517 37.6761 882.352 37.8409 882.147 37.9659C881.943 38.0871 881.719 38.1477 881.477 38.1477Z" fill="#ED174A"/>
</svg>
